<?xml version="1.0"?>
<svg xmlns="http://www.w3.org/2000/svg" viewBox="0 0 162 162" version="1.0">
 <g>
  <path d="m17 66v80h125v-80z" fill="#204a87"/>
  <path fill="#204a87" d="m152 81h-145l25-50h95l25 50z"/>
  <path fill="#3465a4" d="m79.5 95c-6.188 0-12.964 2-16.5 5v4h33v-4c-3.536-3-10.312-5-16.5-5z"/>
  <path fill="#d3d7cf" d="m67 103c5-5 20-5 25 0v40h-25v-40z"/>
  <path fill="#3465a4" d="m72 107c4-3 11-3 15 0v15h-15v-15z"/>
  <path fill="#3465a4" d="m89.5 128.5c0 1.38-1.12 2.5-2.5 2.5s-2.5-1.12-2.5-2.5 1.12-2.5 2.5-2.5 2.5 1.12 2.5 2.5z"/>
  <path fill="#d3d7cf" d="m112 96h20v25h-20v-25z"/>
  <path fill="#d3d7cf" d="m47 96h-20v25h20v-25z"/>
  <path fill="#204a87" d="m107 23h15v9h-15v-9z"/>
  <path fill="#204a87" d="m107 19h15l3 5h-21l3-5z"/>
  <path fill="#3465a4" d="m47 44c-5.25 0-11 2-14 5v4h28v-4c-3-3-8.75-5-14-5z"/>
  <path fill="#d3d7cf" d="m57 52c-5-5-15-5-20 0v25h20v-25z"/>
  <path fill="#3465a4" d="m112 44c-5.25 0-11 2-14 5v4h28v-4c-3-3-8.75-5-14-5z"/>
  <path fill="#d3d7cf" d="m122 52c-5-5-15-5-20 0v25h20v-25z"/>
  <path fill="#3465a4" d="m51 121h-28v4h28v-4z"/>
  <path fill="#3465a4" d="m51 92h-28v4h28v-4z"/>
  <path fill="#3465a4" d="m136 92h-28v4h28v-4z"/>
  <path fill="#3465a4" d="m136 121h-28v4h28v-4z"/>
  <path fill="#3465a4" d="m97 143h-35v3h35v-3z"/>
  <path fill="#3465a4" d="m61 77h-28v4h28v-4z"/>
  <path fill="#3465a4" d="m126 77h-28v4h28v-4z"/>
  <g transform="translate(-9.5 -7)">
   <path transform="matrix(.96 0 0 .96 81.8 25.68)" fill="#3465a4" d="m20 29.5c0 6.9-5.6 12.5-12.5 12.5s-12.5-5.6-12.5-12.5 5.6-12.5 12.5-12.5 12.5 5.6 12.5 12.5z"/>
   <path transform="matrix(.72914 0 0 .72914 83.531 32.49)" fill="#d3d7cf" d="m20 29.5c0 6.9-5.6 12.5-12.5 12.5s-12.5-5.6-12.5-12.5 5.6-12.5 12.5-12.5 12.5 5.6 12.5 12.5z"/>
  </g>
  <path d="m76 37v6h-6v1h6v6h-6v1h6v6h1v-6h5v6h1v-6h6v-1h-6v-6h6v-1h-6v-6h-1v6h-5v-6h-1zm1 7h5v6h-5v-6z" fill="#3465a4"/>
  <path fill="#3465a4" d="m111 48v9h-9v1h9v9h-9v1h9v10h2v-10h9v-1h-9v-9h9v-1h-9v-9h-2z"/>
  <path fill="#3465a4" d="m46 48v9h-9v1h9v9h-9v1h9v10h2v-10h9v-1h-9v-9h9v-1h-9v-9h-2z"/>
  <path d="m36 95v8h-9v1h9v9h-9v1h9v10h2v-10h9v-1h-9v-9h9v-1h-9v-8h-2z" fill="#3465a4"/>
  <path d="m121 95v8h-9v1h9v9h-9v1h9v10h2v-10h9v-1h-9v-9h9v-1h-9v-8h-2z" fill="#3465a4"/>
  <path fill="#729fcf" d="m87.5 127.57c0 0.66-0.531 1.19-1.185 1.19-0.653 0-1.184-0.53-1.184-1.19 0-0.65 0.531-1.18 1.184-1.18 0.654 0 1.185 0.53 1.185 1.18z"/>
  <path d="m25 96h2v25h-2v-25z" fill="#3465a4"/>
  <path d="m47 96h2v25h-2v-25z" fill="#3465a4"/>
  <path d="m35 53h2v24h-2v-24z" fill="#3465a4"/>
  <path d="m57 53h2v24h-2v-24z" fill="#3465a4"/>
  <path d="m100 53h2v24h-2v-24z" fill="#3465a4"/>
  <path d="m122 53h2v24h-2v-24z" fill="#3465a4"/>
  <path d="m110 96h2v25h-2v-25z" fill="#3465a4"/>
  <path d="m132 96h2v25h-2v-25z" fill="#3465a4"/>
 </g>
</svg>